<svg width="30" height="31" viewBox="0 0 30 31" fill="none" xmlns="http://www.w3.org/2000/svg">
<path d="M18.5375 14.6733L13.2375 9.37329C13.1213 9.25613 12.983 9.16313 12.8307 9.09967C12.6784 9.03621 12.515 9.00354 12.35 9.00354C12.185 9.00354 12.0216 9.03621 11.8693 9.09967C11.7169 9.16313 11.5787 9.25613 11.4625 9.37329C11.2297 9.60749 11.099 9.92431 11.099 10.2545C11.099 10.5848 11.2297 10.9016 11.4625 11.1358L15.8875 15.5608L11.4625 19.9858C11.2297 20.22 11.099 20.5368 11.099 20.867C11.099 21.1973 11.2297 21.5141 11.4625 21.7483C11.5793 21.8641 11.7178 21.9558 11.8701 22.018C12.0224 22.0802 12.1855 22.1117 12.35 22.1108C12.5145 22.1117 12.6776 22.0802 12.8299 22.018C12.9822 21.9558 13.1207 21.8641 13.2375 21.7483L18.5375 16.4483C18.6546 16.3321 18.7476 16.1938 18.8111 16.0415C18.8746 15.8892 18.9072 15.7258 18.9072 15.5608C18.9072 15.3958 18.8746 15.2324 18.8111 15.0801C18.7476 14.9277 18.6546 14.7895 18.5375 14.6733Z" fill="#E56D39"/>
</svg>
