<svg width="18" height="19" viewBox="0 0 18 19" fill="none" xmlns="http://www.w3.org/2000/svg">
<path d="M13.44 9.52578C13.4043 9.43371 13.3508 9.34961 13.2825 9.27828L9.5325 5.52828C9.46257 5.45835 9.37955 5.40288 9.28819 5.36503C9.19682 5.32719 9.09889 5.30771 9 5.30771C8.80027 5.30771 8.60873 5.38705 8.4675 5.52828C8.39757 5.59821 8.3421 5.68122 8.30426 5.77259C8.26641 5.86396 8.24693 5.96188 8.24693 6.06078C8.24693 6.2605 8.32627 6.45205 8.4675 6.59328L10.9425 9.06078H5.25C5.05109 9.06078 4.86032 9.1398 4.71967 9.28045C4.57902 9.4211 4.5 9.61187 4.5 9.81078C4.5 10.0097 4.57902 10.2005 4.71967 10.3411C4.86032 10.4818 5.05109 10.5608 5.25 10.5608H10.9425L8.4675 13.0283C8.3972 13.098 8.34141 13.181 8.30333 13.2723C8.26526 13.3637 8.24565 13.4618 8.24565 13.5608C8.24565 13.6598 8.26526 13.7578 8.30333 13.8492C8.34141 13.9406 8.3972 14.0236 8.4675 14.0933C8.53722 14.1636 8.62017 14.2194 8.71157 14.2574C8.80296 14.2955 8.90099 14.3151 9 14.3151C9.09901 14.3151 9.19704 14.2955 9.28843 14.2574C9.37983 14.2194 9.46278 14.1636 9.5325 14.0933L13.2825 10.3433C13.3508 10.272 13.4043 10.1878 13.44 10.0958C13.515 9.91318 13.515 9.70837 13.44 9.52578Z" fill="#E56D39"/>
</svg>
