<svg width="30" height="31" viewBox="0 0 30 31" fill="none" xmlns="http://www.w3.org/2000/svg">
<path d="M3.75 10.2804H26.25C26.5815 10.2804 26.8995 10.1487 27.1339 9.91428C27.3683 9.67986 27.5 9.36192 27.5 9.0304C27.5 8.69887 27.3683 8.38093 27.1339 8.14651C26.8995 7.91209 26.5815 7.7804 26.25 7.7804H3.75C3.41848 7.7804 3.10054 7.91209 2.86612 8.14651C2.6317 8.38093 2.5 8.69887 2.5 9.0304C2.5 9.36192 2.6317 9.67986 2.86612 9.91428C3.10054 10.1487 3.41848 10.2804 3.75 10.2804ZM26.25 20.2804H3.75C3.41848 20.2804 3.10054 20.4121 2.86612 20.6465C2.6317 20.8809 2.5 21.1989 2.5 21.5304C2.5 21.8619 2.6317 22.1799 2.86612 22.4143C3.10054 22.6487 3.41848 22.7804 3.75 22.7804H26.25C26.5815 22.7804 26.8995 22.6487 27.1339 22.4143C27.3683 22.1799 27.5 21.8619 27.5 21.5304C27.5 21.1989 27.3683 20.8809 27.1339 20.6465C26.8995 20.4121 26.5815 20.2804 26.25 20.2804ZM26.25 14.0304H3.75C3.41848 14.0304 3.10054 14.1621 2.86612 14.3965C2.6317 14.6309 2.5 14.9489 2.5 15.2804C2.5 15.6119 2.6317 15.9299 2.86612 16.1643C3.10054 16.3987 3.41848 16.5304 3.75 16.5304H26.25C26.5815 16.5304 26.8995 16.3987 27.1339 16.1643C27.3683 15.9299 27.5 15.6119 27.5 15.2804C27.5 14.9489 27.3683 14.6309 27.1339 14.3965C26.8995 14.1621 26.5815 14.0304 26.25 14.0304Z" fill="#E56D39"/>
</svg>
