<svg width="18" height="19" viewBox="0 0 18 19" fill="none" xmlns="http://www.w3.org/2000/svg">
<path d="M9 1.62451C7.51664 1.62451 6.0666 2.06438 4.83323 2.88849C3.59986 3.7126 2.63856 4.88394 2.07091 6.25439C1.50325 7.62483 1.35472 9.13283 1.64411 10.5877C1.9335 12.0425 2.64781 13.3789 3.6967 14.4278C4.7456 15.4767 6.08197 16.191 7.53683 16.4804C8.99168 16.7698 10.4997 16.6213 11.8701 16.0536C13.2406 15.486 14.4119 14.5247 15.236 13.2913C16.0601 12.0579 16.5 10.6079 16.5 9.12451C16.5 8.1396 16.306 7.16433 15.9291 6.25439C15.5522 5.34444 14.9997 4.51765 14.3033 3.82121C13.6069 3.12477 12.7801 2.57233 11.8701 2.19542C10.9602 1.8185 9.98492 1.62451 9 1.62451V1.62451ZM9 15.1245C7.40871 15.1245 5.88258 14.4924 4.75736 13.3672C3.63214 12.2419 3 10.7158 3 9.12451C2.99835 7.79202 3.44477 6.49767 4.2675 5.44951L12.675 13.857C11.6268 14.6797 10.3325 15.1262 9 15.1245V15.1245ZM13.7325 12.7995L5.325 4.39201C6.37316 3.56927 7.66751 3.12285 9 3.12451C10.5913 3.12451 12.1174 3.75665 13.2426 4.88187C14.3679 6.00709 15 7.53321 15 9.12451C15.0017 10.457 14.5552 11.7514 13.7325 12.7995Z" fill="#7F5333"/>
</svg>
