<svg width="20" height="21" viewBox="0 0 20 21" fill="none" xmlns="http://www.w3.org/2000/svg">
<path d="M15.8333 4.14414H14.1667V3.31081C14.1667 3.0898 14.0789 2.87784 13.9226 2.72156C13.7663 2.56528 13.5543 2.47748 13.3333 2.47748C13.1123 2.47748 12.9003 2.56528 12.7441 2.72156C12.5878 2.87784 12.5 3.0898 12.5 3.31081V4.14414H7.49999V3.31081C7.49999 3.0898 7.41219 2.87784 7.25591 2.72156C7.09963 2.56528 6.88767 2.47748 6.66666 2.47748C6.44564 2.47748 6.23368 2.56528 6.0774 2.72156C5.92112 2.87784 5.83332 3.0898 5.83332 3.31081V4.14414H4.16666C3.50362 4.14414 2.86773 4.40754 2.39889 4.87638C1.93005 5.34522 1.66666 5.9811 1.66666 6.64414V16.6441C1.66666 17.3072 1.93005 17.9431 2.39889 18.4119C2.86773 18.8808 3.50362 19.1441 4.16666 19.1441H15.8333C16.4964 19.1441 17.1323 18.8808 17.6011 18.4119C18.0699 17.9431 18.3333 17.3072 18.3333 16.6441V6.64414C18.3333 5.9811 18.0699 5.34522 17.6011 4.87638C17.1323 4.40754 16.4964 4.14414 15.8333 4.14414V4.14414ZM16.6667 16.6441C16.6667 16.8652 16.5789 17.0771 16.4226 17.2334C16.2663 17.3897 16.0543 17.4775 15.8333 17.4775H4.16666C3.94564 17.4775 3.73368 17.3897 3.5774 17.2334C3.42112 17.0771 3.33332 16.8652 3.33332 16.6441V10.8108H16.6667V16.6441ZM16.6667 9.14415H3.33332V6.64414C3.33332 6.42313 3.42112 6.21117 3.5774 6.05489C3.73368 5.89861 3.94564 5.81081 4.16666 5.81081H5.83332V6.64414C5.83332 6.86516 5.92112 7.07712 6.0774 7.2334C6.23368 7.38968 6.44564 7.47748 6.66666 7.47748C6.88767 7.47748 7.09963 7.38968 7.25591 7.2334C7.41219 7.07712 7.49999 6.86516 7.49999 6.64414V5.81081H12.5V6.64414C12.5 6.86516 12.5878 7.07712 12.7441 7.2334C12.9003 7.38968 13.1123 7.47748 13.3333 7.47748C13.5543 7.47748 13.7663 7.38968 13.9226 7.2334C14.0789 7.07712 14.1667 6.86516 14.1667 6.64414V5.81081H15.8333C16.0543 5.81081 16.2663 5.89861 16.4226 6.05489C16.5789 6.21117 16.6667 6.42313 16.6667 6.64414V9.14415Z" fill="#E56D39"/>
</svg>
