<svg width="18" height="19" viewBox="0 0 18 19" fill="none" xmlns="http://www.w3.org/2000/svg">
<path d="M14.0325 5.41106C13.9628 5.34076 13.8799 5.28497 13.7885 5.24689C13.6971 5.20881 13.599 5.18921 13.5 5.18921C13.401 5.18921 13.303 5.20881 13.2116 5.24689C13.1202 5.28497 13.0372 5.34076 12.9675 5.41106L7.38002 11.0061L5.03252 8.65106C4.96013 8.58113 4.87468 8.52614 4.78103 8.48924C4.68739 8.45234 4.5874 8.43424 4.48677 8.43598C4.38613 8.43772 4.28682 8.45927 4.19451 8.49939C4.1022 8.53951 4.0187 8.59742 3.94877 8.66981C3.87884 8.7422 3.82386 8.82766 3.78696 8.9213C3.75005 9.01494 3.73196 9.11493 3.7337 9.21557C3.73544 9.3162 3.75698 9.41551 3.7971 9.50782C3.83722 9.60013 3.89513 9.68363 3.96752 9.75356L6.84752 12.6336C6.91725 12.7039 7.0002 12.7597 7.09159 12.7977C7.18299 12.8358 7.28101 12.8554 7.38002 12.8554C7.47903 12.8554 7.57706 12.8358 7.66846 12.7977C7.75985 12.7597 7.8428 12.7039 7.91252 12.6336L14.0325 6.51356C14.1087 6.44333 14.1694 6.35809 14.211 6.26321C14.2525 6.16834 14.274 6.06588 14.274 5.96231C14.274 5.85873 14.2525 5.75628 14.211 5.6614C14.1694 5.56653 14.1087 5.48129 14.0325 5.41106V5.41106Z" fill="#E56D39"/>
</svg>
