<svg width="40" height="41" viewBox="0 0 40 41" fill="none" xmlns="http://www.w3.org/2000/svg">
<path d="M12.4998 17.3065H14.1665C14.6085 17.3065 15.0325 17.1309 15.345 16.8183C15.6576 16.5058 15.8332 16.0818 15.8332 15.6398C15.8332 15.1978 15.6576 14.7739 15.345 14.4613C15.0325 14.1487 14.6085 13.9731 14.1665 13.9731H12.4998C12.0578 13.9731 11.6339 14.1487 11.3213 14.4613C11.0088 14.7739 10.8332 15.1978 10.8332 15.6398C10.8332 16.0818 11.0088 16.5058 11.3213 16.8183C11.6339 17.1309 12.0578 17.3065 12.4998 17.3065ZM19.1665 27.3065H12.4998C12.0578 27.3065 11.6339 27.4821 11.3213 27.7946C11.0088 28.1072 10.8332 28.5311 10.8332 28.9731C10.8332 29.4152 11.0088 29.8391 11.3213 30.1517C11.6339 30.4642 12.0578 30.6398 12.4998 30.6398H19.1665C19.6085 30.6398 20.0325 30.4642 20.345 30.1517C20.6576 29.8391 20.8332 29.4152 20.8332 28.9731C20.8332 28.5311 20.6576 28.1072 20.345 27.7946C20.0325 27.4821 19.6085 27.3065 19.1665 27.3065ZM19.1665 20.6398H12.4998C12.0578 20.6398 11.6339 20.8154 11.3213 21.128C11.0088 21.4405 10.8332 21.8645 10.8332 22.3065C10.8332 22.7485 11.0088 23.1724 11.3213 23.485C11.6339 23.7976 12.0578 23.9731 12.4998 23.9731H19.1665C19.6085 23.9731 20.0325 23.7976 20.345 23.485C20.6576 23.1724 20.8332 22.7485 20.8332 22.3065C20.8332 21.8645 20.6576 21.4405 20.345 21.128C20.0325 20.8154 19.6085 20.6398 19.1665 20.6398ZM30.6998 16.2731C30.8275 15.9696 30.8623 15.6351 30.8 15.3118C30.7378 14.9885 30.5811 14.6909 30.3498 14.4565L20.3498 4.45648C20.2121 4.32684 20.0545 4.21995 19.8832 4.13981C19.8334 4.13274 19.7829 4.13274 19.7332 4.13981L19.2665 3.97314H9.1665C7.84042 3.97314 6.56865 4.49993 5.63097 5.43761C4.69329 6.37529 4.1665 7.64706 4.1665 8.97314V32.3065C4.1665 33.6326 4.69329 34.9043 5.63097 35.842C6.56865 36.7797 7.84042 37.3065 9.1665 37.3065H19.1665C19.6085 37.3065 20.0325 37.1309 20.345 36.8183C20.6576 36.5058 20.8332 36.0818 20.8332 35.6398C20.8332 35.1978 20.6576 34.7739 20.345 34.4613C20.0325 34.1487 19.6085 33.9731 19.1665 33.9731H9.1665C8.72448 33.9731 8.30055 33.7976 7.98799 33.485C7.67543 33.1724 7.49984 32.7485 7.49984 32.3065V8.97314C7.49984 8.53112 7.67543 8.10719 7.98799 7.79463C8.30055 7.48207 8.72448 7.30648 9.1665 7.30648H17.4998V12.3065C17.4998 13.6326 18.0266 14.9043 18.9643 15.842C19.902 16.7797 21.1738 17.3065 22.4998 17.3065H29.1665C29.4955 17.3048 29.8167 17.2058 30.0896 17.0219C30.3625 16.8381 30.5748 16.5775 30.6998 16.2731V16.2731ZM22.4998 13.9731C22.0578 13.9731 21.6339 13.7975 21.3213 13.485C21.0088 13.1724 20.8332 12.7485 20.8332 12.3065V9.65648L25.1498 13.9731H22.4998ZM34.1665 20.6398H25.8332C25.3911 20.6398 24.9672 20.8154 24.6547 21.128C24.3421 21.4405 24.1665 21.8645 24.1665 22.3065V35.6398C24.1673 35.9413 24.2499 36.237 24.4054 36.4952C24.561 36.7535 24.7837 36.9648 25.0498 37.1065C25.3105 37.2403 25.6017 37.3031 25.8944 37.2884C26.187 37.2738 26.4705 37.1823 26.7165 37.0231L29.9998 34.8565L33.3332 37.0231C33.5822 37.1671 33.8642 37.2443 34.1518 37.247C34.4394 37.2497 34.7228 37.1779 34.9745 37.0387C35.2262 36.8994 35.4375 36.6974 35.588 36.4523C35.7384 36.2072 35.8229 35.9273 35.8332 35.6398V22.3065C35.8332 21.8645 35.6576 21.4405 35.345 21.128C35.0325 20.8154 34.6085 20.6398 34.1665 20.6398ZM32.4998 32.5065L30.9332 31.4565C30.6576 31.2702 30.3325 31.1706 29.9998 31.1706C29.6672 31.1706 29.3421 31.2702 29.0665 31.4565L27.4998 32.5065V23.9731H32.4998V32.5065Z" fill="#E56D39"/>
</svg>
