<svg width="34" height="35" viewBox="0 0 34 35" fill="none" xmlns="http://www.w3.org/2000/svg">
<path d="M28.3334 12.9899C28.3186 12.8597 28.2901 12.7315 28.2484 12.6074V12.4799C28.1802 12.3342 28.0894 12.2003 27.9792 12.0832V12.0832L19.4792 3.5832C19.3621 3.47301 19.2282 3.38215 19.0825 3.31404H18.9409C18.8031 3.24037 18.6551 3.18784 18.5017 3.1582H9.91669C8.78952 3.1582 7.70851 3.60597 6.91148 4.403C6.11445 5.20003 5.66669 6.28103 5.66669 7.4082V27.2415C5.66669 28.3687 6.11445 29.4497 6.91148 30.2467C7.70851 31.0438 8.78952 31.4915 9.91669 31.4915H24.0834C25.2105 31.4915 26.2915 31.0438 27.0886 30.2467C27.8856 29.4497 28.3334 28.3687 28.3334 27.2415V13.0749C28.3334 13.0749 28.3334 13.0749 28.3334 12.9899ZM19.8334 7.98904L23.5025 11.6582H21.25C20.8743 11.6582 20.514 11.5089 20.2483 11.2433C19.9826 10.9776 19.8334 10.6173 19.8334 10.2415V7.98904ZM25.5 27.2415C25.5 27.6173 25.3508 27.9776 25.0851 28.2433C24.8194 28.5089 24.4591 28.6582 24.0834 28.6582H9.91669C9.54096 28.6582 9.18063 28.5089 8.91495 28.2433C8.64928 27.9776 8.50002 27.6173 8.50002 27.2415V7.4082C8.50002 7.03248 8.64928 6.67215 8.91495 6.40647C9.18063 6.14079 9.54096 5.99154 9.91669 5.99154H17V10.2415C17 11.3687 17.4478 12.4497 18.2448 13.2467C19.0418 14.0438 20.1229 14.4915 21.25 14.4915H25.5V27.2415ZM18.8275 20.569L18.4167 20.994V17.3249C18.4167 16.9491 18.2674 16.5888 18.0018 16.3231C17.7361 16.0575 17.3757 15.9082 17 15.9082C16.6243 15.9082 16.264 16.0575 15.9983 16.3231C15.7326 16.5888 15.5834 16.9491 15.5834 17.3249V20.994L15.1725 20.569C14.9058 20.3023 14.5439 20.1524 14.1667 20.1524C13.7894 20.1524 13.4276 20.3023 13.1609 20.569C12.8941 20.8358 12.7442 21.1976 12.7442 21.5749C12.7442 21.9521 12.8941 22.3139 13.1609 22.5807L15.9942 25.414C16.1289 25.543 16.2878 25.6441 16.4617 25.7115C16.6313 25.7865 16.8146 25.8252 17 25.8252C17.1854 25.8252 17.3688 25.7865 17.5384 25.7115C17.7123 25.6441 17.8711 25.543 18.0059 25.414L20.8392 22.5807C21.106 22.3139 21.2558 21.9521 21.2558 21.5749C21.2558 21.1976 21.106 20.8358 20.8392 20.569C20.5724 20.3023 20.2106 20.1524 19.8334 20.1524C19.4561 20.1524 19.0943 20.3023 18.8275 20.569V20.569Z" fill="#E56D39"/>
</svg>
