<svg width="20" height="21" viewBox="0 0 20 21" fill="none" xmlns="http://www.w3.org/2000/svg">
<path d="M15 6.64411H14.7083C14.8985 6.25475 14.9982 5.82744 15 5.39411C15.0025 4.81355 14.8312 4.24552 14.5082 3.76314C14.1851 3.28076 13.7251 2.9061 13.1873 2.6874C12.6495 2.46869 12.0585 2.41595 11.4905 2.53596C10.9225 2.65597 10.4034 2.94323 10 3.36078C9.59662 2.94323 9.07751 2.65597 8.50948 2.53596C7.94146 2.41595 7.35051 2.46869 6.81271 2.6874C6.27491 2.9061 5.81488 3.28076 5.49182 3.76314C5.16877 4.24552 4.99748 4.81355 5 5.39411C5.00178 5.82744 5.10149 6.25475 5.29167 6.64411H5C4.33696 6.64411 3.70107 6.90751 3.23223 7.37635C2.76339 7.84519 2.5 8.48107 2.5 9.14411V10.8108C2.5 11.0318 2.5878 11.2438 2.74408 11.4C2.90036 11.5563 3.11232 11.6441 3.33333 11.6441H4.16667V16.6441C4.16667 17.3072 4.43006 17.943 4.8989 18.4119C5.36774 18.8807 6.00363 19.1441 6.66667 19.1441H13.3333C13.9964 19.1441 14.6323 18.8807 15.1011 18.4119C15.5699 17.943 15.8333 17.3072 15.8333 16.6441V11.6441H16.6667C16.8877 11.6441 17.0996 11.5563 17.2559 11.4C17.4122 11.2438 17.5 11.0318 17.5 10.8108V9.14411C17.5 8.48107 17.2366 7.84519 16.7678 7.37635C16.2989 6.90751 15.663 6.64411 15 6.64411ZM9.16667 17.4774H6.66667C6.44565 17.4774 6.23369 17.3897 6.07741 17.2334C5.92113 17.0771 5.83333 16.8651 5.83333 16.6441V11.6441H9.16667V17.4774ZM9.16667 9.97745H4.16667V9.14411C4.16667 8.9231 4.25446 8.71114 4.41074 8.55486C4.56702 8.39858 4.77899 8.31078 5 8.31078H9.16667V9.97745ZM9.16667 6.64411H7.91667C7.66944 6.64411 7.42777 6.5708 7.2222 6.43345C7.01664 6.2961 6.85643 6.10088 6.76182 5.87247C6.66721 5.64406 6.64245 5.39273 6.69068 5.15025C6.73892 4.90778 6.85797 4.68505 7.03278 4.51023C7.2076 4.33542 7.43033 4.21636 7.6728 4.16813C7.91528 4.1199 8.16661 4.14466 8.39502 4.23927C8.62343 4.33387 8.81865 4.49409 8.956 4.69965C9.09336 4.90521 9.16667 5.14689 9.16667 5.39411V6.64411ZM10.8333 5.39411C10.8333 5.14689 10.9066 4.90521 11.044 4.69965C11.1813 4.49409 11.3766 4.33387 11.605 4.23927C11.8334 4.14466 12.0847 4.1199 12.3272 4.16813C12.5697 4.21636 12.7924 4.33542 12.9672 4.51023C13.142 4.68505 13.2611 4.90778 13.3093 5.15025C13.3575 5.39273 13.3328 5.64406 13.2382 5.87247C13.1436 6.10088 12.9834 6.2961 12.7778 6.43345C12.5722 6.5708 12.3306 6.64411 12.0833 6.64411H10.8333V5.39411ZM14.1667 16.6441C14.1667 16.8651 14.0789 17.0771 13.9226 17.2334C13.7663 17.3897 13.5543 17.4774 13.3333 17.4774H10.8333V11.6441H14.1667V16.6441ZM15.8333 9.97745H10.8333V8.31078H15C15.221 8.31078 15.433 8.39858 15.5893 8.55486C15.7455 8.71114 15.8333 8.9231 15.8333 9.14411V9.97745Z" fill="#E56D39"/>
</svg>
