<svg width="24" height="25" viewBox="0 0 24 25" fill="none" xmlns="http://www.w3.org/2000/svg">
<path d="M20.16 5.00358C19.0999 3.94079 17.6948 3.29212 16.1983 3.17475C14.7018 3.05738 13.2127 3.47905 12 4.36358C10.7276 3.41722 9.14396 2.98809 7.56789 3.16262C5.99182 3.33715 4.54041 4.10236 3.50594 5.30417C2.47148 6.50598 1.93079 8.0551 1.99277 9.6396C2.05475 11.2241 2.71479 12.7263 3.83997 13.8436L10.05 20.0636C10.57 20.5754 11.2704 20.8622 12 20.8622C12.7296 20.8622 13.43 20.5754 13.95 20.0636L20.16 13.8436C21.3275 12.6688 21.9829 11.0799 21.9829 9.42358C21.9829 7.76731 21.3275 6.17832 20.16 5.00358ZM18.75 12.4636L12.54 18.6736C12.4693 18.7449 12.3852 18.8016 12.2925 18.8402C12.1998 18.8789 12.1004 18.8988 12 18.8988C11.8995 18.8988 11.8001 18.8789 11.7074 18.8402C11.6147 18.8016 11.5306 18.7449 11.46 18.6736L5.24997 12.4336C4.46573 11.6319 4.02658 10.555 4.02658 9.43358C4.02658 8.31212 4.46573 7.23524 5.24997 6.43358C6.04913 5.64457 7.12694 5.20215 8.24997 5.20215C9.373 5.20215 10.4508 5.64457 11.25 6.43358C11.3429 6.52731 11.4535 6.60171 11.5754 6.65247C11.6973 6.70324 11.828 6.72938 11.96 6.72938C12.092 6.72938 12.2227 6.70324 12.3445 6.65247C12.4664 6.60171 12.577 6.52731 12.67 6.43358C13.4691 5.64457 14.5469 5.20215 15.67 5.20215C16.793 5.20215 17.8708 5.64457 18.67 6.43358C19.465 7.22473 19.9186 8.29577 19.9335 9.41727C19.9485 10.5388 19.5236 11.6215 18.75 12.4336V12.4636Z" fill="#E56D39"/>
</svg>
