<svg width="13" height="13" viewBox="0 0 13 13" fill="none" xmlns="http://www.w3.org/2000/svg">
<g opacity="0.5">
<path d="M10.4912 5.63498C10.421 4.90444 10.1628 4.20452 9.74176 3.60339C9.32074 3.00226 8.75122 2.52039 8.08867 2.20473C7.42612 1.88906 6.69311 1.75034 5.96103 1.80208C5.22895 1.85382 4.52274 2.09426 3.91117 2.49998C3.38577 2.8513 2.9447 3.31463 2.61964 3.85667C2.29459 4.39872 2.09362 5.00603 2.03117 5.63498C1.96991 6.25981 2.04851 6.89044 2.26126 7.48112C2.474 8.07179 2.81557 8.60771 3.26117 9.04998L5.91117 11.705C5.95765 11.7518 6.01295 11.789 6.07388 11.8144C6.13481 11.8398 6.20017 11.8529 6.26617 11.8529C6.33218 11.8529 6.39753 11.8398 6.45846 11.8144C6.51939 11.789 6.57469 11.7518 6.62117 11.705L9.26117 9.04998C9.70677 8.60771 10.0483 8.07179 10.2611 7.48112C10.4738 6.89044 10.5524 6.25981 10.4912 5.63498V5.63498ZM8.56117 8.34498L6.26117 10.645L3.96117 8.34498C3.62222 8.006 3.36257 7.59614 3.2009 7.14486C3.03924 6.69357 2.97956 6.21208 3.02617 5.73498C3.07308 5.25053 3.22705 4.78256 3.47696 4.3649C3.72686 3.94724 4.06645 3.59033 4.47117 3.31998C5.00164 2.9676 5.62432 2.77963 6.26117 2.77963C6.89802 2.77963 7.5207 2.9676 8.05117 3.31998C8.45467 3.58929 8.79351 3.94462 9.04335 4.36045C9.29319 4.77628 9.44784 5.24228 9.49617 5.72498C9.5443 6.20369 9.48537 6.68712 9.32366 7.14025C9.16195 7.59339 8.9015 8.0049 8.56117 8.34498V8.34498ZM6.26117 3.81998C5.81616 3.81998 5.38115 3.95194 5.01114 4.19917C4.64113 4.44641 4.35274 4.79781 4.18244 5.20894C4.01215 5.62007 3.96759 6.07247 4.0544 6.50893C4.14122 6.94539 4.35551 7.3463 4.67018 7.66097C4.98485 7.97564 5.38576 8.18993 5.82222 8.27675C6.25867 8.36356 6.71107 8.31901 7.12221 8.14871C7.53334 7.97841 7.88474 7.69002 8.13198 7.32001C8.37921 6.95 8.51117 6.51499 8.51117 6.06998C8.50985 5.47365 8.27237 4.90212 7.8507 4.48045C7.42903 4.05878 6.8575 3.8213 6.26117 3.81998V3.81998ZM6.26117 7.31998C6.01394 7.31998 5.77227 7.24667 5.56671 7.10932C5.36115 6.97196 5.20093 6.77674 5.10632 6.54833C5.01171 6.31993 4.98696 6.06859 5.03519 5.82612C5.08342 5.58364 5.20247 5.36091 5.37729 5.1861C5.5521 5.01128 5.77483 4.89223 6.01731 4.844C6.25978 4.79577 6.51112 4.82052 6.73953 4.91513C6.96793 5.00974 7.16316 5.16995 7.30051 5.37552C7.43786 5.58108 7.51117 5.82275 7.51117 6.06998C7.51117 6.4015 7.37947 6.71944 7.14505 6.95386C6.91063 7.18828 6.59269 7.31998 6.26117 7.31998V7.31998Z" fill="black"/>
</g>
</svg>
