<svg width="25" height="25" viewBox="0 0 25 25" fill="none" xmlns="http://www.w3.org/2000/svg">
<path d="M13.1479 13.3904L12.978 13.2804C12.7949 13.2051 12.5936 13.1858 12.3996 13.2249C12.2055 13.2641 12.0275 13.36 11.888 13.5004C11.7914 13.5891 11.7162 13.6985 11.668 13.8204C11.6154 13.9437 11.5882 14.0763 11.588 14.2104C11.5895 14.3411 11.6167 14.4702 11.668 14.5904C11.7754 14.8307 11.9677 15.0229 12.2079 15.1304C12.3282 15.1816 12.4573 15.2088 12.5879 15.2104C12.7218 15.2079 12.854 15.1808 12.978 15.1304C13.098 15.0787 13.2067 15.0039 13.2979 14.9104C13.4842 14.723 13.5887 14.4696 13.5887 14.2054C13.5887 13.9412 13.4842 13.6878 13.2979 13.5004L13.1479 13.3904ZM12.5879 6.2804C12.1108 6.27503 11.6405 6.3939 11.2232 6.62534C10.8059 6.85677 10.456 7.1928 10.208 7.6004C10.1356 7.71421 10.087 7.84149 10.0651 7.97457C10.0432 8.10765 10.0485 8.24379 10.0806 8.37478C10.1127 8.50578 10.1709 8.62893 10.2518 8.73683C10.3328 8.84473 10.4347 8.93515 10.5514 9.00264C10.6682 9.07013 10.7974 9.11331 10.9313 9.12957C11.0652 9.14584 11.201 9.13485 11.3305 9.09727C11.46 9.0597 11.5806 8.99631 11.685 8.91092C11.7894 8.82553 11.8754 8.7199 11.9379 8.6004C12.0117 8.49782 12.1096 8.41498 12.223 8.35917C12.3363 8.30337 12.4617 8.27631 12.5879 8.2804C12.7869 8.2804 12.9776 8.35941 13.1183 8.50007C13.2589 8.64072 13.3379 8.83148 13.3379 9.0304C13.3379 9.22931 13.2589 9.42007 13.1183 9.56073C12.9776 9.70138 12.7869 9.7804 12.5879 9.7804C12.3227 9.7804 12.0684 9.88575 11.8808 10.0733C11.6933 10.2608 11.588 10.5152 11.588 10.7804C11.588 11.0456 11.6933 11.3 11.8808 11.4875C12.0684 11.675 12.3227 11.7804 12.5879 11.7804C13.3173 11.7804 14.0168 11.4907 14.5325 10.9749C15.0482 10.4592 15.3379 9.75974 15.3379 9.0304C15.3379 8.30105 15.0482 7.60158 14.5325 7.08585C14.0168 6.57013 13.3173 6.2804 12.5879 6.2804ZM21.1679 9.9604C21.0354 8.495 20.5246 7.08913 19.6858 5.8803C18.8469 4.67148 17.7086 3.70111 16.3823 3.06414C15.0559 2.42717 13.5869 2.1454 12.119 2.24641C10.6511 2.34742 9.23455 2.82775 8.00795 3.6404C6.95715 4.34304 6.075 5.26969 5.42489 6.35379C4.77478 7.43788 4.37284 8.6525 4.24795 9.9104C4.12543 11.1601 4.28262 12.4213 4.70812 13.6027C5.13362 14.784 5.81675 15.8559 6.70795 16.7404L12.008 22.0504C12.1009 22.1441 12.2115 22.2185 12.3334 22.2693C12.4552 22.3201 12.5859 22.3462 12.7179 22.3462C12.85 22.3462 12.9807 22.3201 13.1025 22.2693C13.2244 22.2185 13.335 22.1441 13.4279 22.0504L18.7079 16.7404C19.5992 15.8559 20.2823 14.784 20.7078 13.6027C21.1333 12.4213 21.2905 11.1601 21.1679 9.9104V9.9604ZM17.308 15.3304L12.7079 19.9304L8.10795 15.3304C7.43004 14.6524 6.91075 13.8327 6.58742 12.9302C6.26408 12.0276 6.14473 11.0646 6.23795 10.1104C6.33177 9.1415 6.63971 8.20556 7.13952 7.37024C7.63933 6.53492 8.31851 5.8211 9.12795 5.2804C10.1889 4.57563 11.4343 4.19969 12.7079 4.19969C13.9816 4.19969 15.227 4.57563 16.2879 5.2804C17.0949 5.81901 17.7726 6.52968 18.2723 7.36133C18.772 8.19299 19.0813 9.125 19.1779 10.0904C19.2742 11.0478 19.1564 12.0147 18.8329 12.9209C18.5095 13.8272 17.9886 14.6502 17.308 15.3304Z" fill="#E56D39"/>
</svg>
