<svg width="16" height="17" viewBox="0 0 16 17" fill="none" xmlns="http://www.w3.org/2000/svg">
<path d="M8.94028 8.50012L13.1403 4.30679C13.2658 4.18125 13.3363 4.01099 13.3363 3.83346C13.3363 3.65592 13.2658 3.48566 13.1403 3.36012C13.0147 3.23459 12.8445 3.16406 12.667 3.16406C12.4894 3.16406 12.3192 3.23459 12.1936 3.36012L8.00028 7.56012L3.80695 3.36012C3.68142 3.23459 3.51115 3.16406 3.33362 3.16406C3.15608 3.16406 2.98582 3.23459 2.86028 3.36012C2.73475 3.48566 2.66422 3.65592 2.66422 3.83346C2.66422 4.01099 2.73475 4.18125 2.86028 4.30679L7.06029 8.50012L2.86028 12.6935C2.7978 12.7554 2.7482 12.8292 2.71436 12.9104C2.68051 12.9916 2.66309 13.0788 2.66309 13.1668C2.66309 13.2548 2.68051 13.3419 2.71436 13.4232C2.7482 13.5044 2.7978 13.5781 2.86028 13.6401C2.92226 13.7026 2.99599 13.7522 3.07723 13.7861C3.15847 13.8199 3.24561 13.8373 3.33362 13.8373C3.42163 13.8373 3.50876 13.8199 3.59 13.7861C3.67124 13.7522 3.74498 13.7026 3.80695 13.6401L8.00028 9.44012L12.1936 13.6401C12.2556 13.7026 12.3293 13.7522 12.4106 13.7861C12.4918 13.8199 12.5789 13.8373 12.667 13.8373C12.755 13.8373 12.8421 13.8199 12.9233 13.7861C13.0046 13.7522 13.0783 13.7026 13.1403 13.6401C13.2028 13.5781 13.2524 13.5044 13.2862 13.4232C13.3201 13.3419 13.3375 13.2548 13.3375 13.1668C13.3375 13.0788 13.3201 12.9916 13.2862 12.9104C13.2524 12.8292 13.2028 12.7554 13.1403 12.6935L8.94028 8.50012Z" fill="black"/>
</svg>
