<svg width="21" height="21" viewBox="0 0 21 21" fill="none" xmlns="http://www.w3.org/2000/svg">
<path d="M7.13149 9.77565C7.62594 9.77565 8.10929 9.62903 8.52041 9.35433C8.93154 9.07962 9.25197 8.68918 9.44119 8.23236C9.6304 7.77554 9.67991 7.27288 9.58345 6.78793C9.48699 6.30297 9.24889 5.85752 8.89925 5.50788C8.54962 5.15825 8.10416 4.92015 7.61921 4.82369C7.13426 4.72723 6.63159 4.77673 6.17478 4.96595C5.71796 5.15517 5.32752 5.4756 5.05281 5.88673C4.77811 6.29785 4.63149 6.7812 4.63149 7.27565C4.63221 7.93847 4.89584 8.57394 5.36452 9.04262C5.8332 9.5113 6.46867 9.77493 7.13149 9.77565V9.77565ZM7.13149 6.44232C7.2963 6.44232 7.45742 6.49119 7.59446 6.58276C7.7315 6.67433 7.83831 6.80448 7.90139 6.95675C7.96446 7.10902 7.98096 7.27658 7.94881 7.43823C7.91665 7.59988 7.83729 7.74836 7.72074 7.86491C7.6042 7.98145 7.45571 8.06082 7.29406 8.09297C7.13241 8.12513 6.96486 8.10862 6.81258 8.04555C6.66031 7.98248 6.53016 7.87567 6.4386 7.73863C6.34703 7.60159 6.29815 7.44047 6.29815 7.27565C6.2983 7.05468 6.38615 6.84281 6.54239 6.68656C6.69864 6.53031 6.91052 6.44247 7.13149 6.44232V6.44232ZM14.2018 11.846C13.7073 11.846 13.224 11.9926 12.8129 12.2673C12.4018 12.542 12.0813 12.9324 11.8921 13.3893C11.7029 13.8461 11.6534 14.3487 11.7498 14.8337C11.8463 15.3186 12.0844 15.7641 12.434 16.1137C12.7837 16.4634 13.2291 16.7015 13.7141 16.7979C14.199 16.8944 14.7017 16.8449 15.1585 16.6557C15.6153 16.4664 16.0058 16.146 16.2805 15.7349C16.5552 15.3238 16.7018 14.8404 16.7018 14.346C16.7011 13.6831 16.4375 13.0477 15.9688 12.579C15.5001 12.1103 14.8646 11.8467 14.2018 11.846V11.846ZM14.2018 15.1793C14.037 15.1793 13.8759 15.1304 13.7388 15.0389C13.6018 14.9473 13.495 14.8171 13.4319 14.6649C13.3688 14.5126 13.3523 14.345 13.3845 14.1834C13.4166 14.0217 13.496 13.8733 13.6125 13.7567C13.7291 13.6402 13.8776 13.5608 14.0392 13.5286C14.2009 13.4965 14.3684 13.513 14.5207 13.5761C14.673 13.6391 14.8031 13.746 14.8947 13.883C14.9863 14.02 15.0351 14.1812 15.0351 14.346C15.035 14.5669 14.9471 14.7788 14.7909 14.9351C14.6346 15.0913 14.4228 15.1792 14.2018 15.1793V15.1793ZM17.0891 4.38831C17.0118 4.31091 16.9199 4.24951 16.8188 4.20762C16.7177 4.16573 16.6094 4.14417 16.5 4.14417C16.3905 4.14417 16.2822 4.16573 16.1811 4.20762C16.08 4.24951 15.9881 4.31091 15.9108 4.38831L4.2441 16.055C4.16592 16.1322 4.10379 16.2241 4.06127 16.3254C4.01875 16.4267 3.99669 16.5354 3.99634 16.6452C3.996 16.7551 4.01739 16.864 4.05927 16.9655C4.10116 17.0671 4.16271 17.1594 4.2404 17.2371C4.31809 17.3147 4.41037 17.3763 4.51194 17.4182C4.61351 17.4601 4.72236 17.4814 4.83222 17.4811C4.94208 17.4807 5.05079 17.4587 5.15209 17.4161C5.25339 17.3736 5.34528 17.3115 5.42248 17.2333L17.0891 5.56664C17.1665 5.48929 17.2279 5.39744 17.2698 5.29635C17.3117 5.19526 17.3333 5.0869 17.3333 4.97748C17.3333 4.86805 17.3117 4.7597 17.2698 4.65861C17.2279 4.55752 17.1665 4.46567 17.0891 4.38831V4.38831Z" fill="#E56D39"/>
</svg>
