<svg width="40" height="41" viewBox="0 0 40 41" fill="none" xmlns="http://www.w3.org/2000/svg">
<path d="M30.9 15.8248L14.8 6.5915C13.9288 6.08843 12.94 5.8249 11.934 5.82766C10.928 5.83042 9.94062 6.09938 9.0722 6.60723C8.20379 7.11508 7.48525 7.84371 6.98957 8.71913C6.49388 9.59454 6.23872 10.5856 6.24999 11.5915V30.1248C6.24999 31.6366 6.85053 33.0864 7.91948 34.1553C8.98844 35.2243 10.4383 35.8248 11.95 35.8248C12.9507 35.8231 13.9335 35.5588 14.8 35.0582L30.9 25.8248C31.7651 25.3241 32.4833 24.6048 32.9826 23.7389C33.4819 22.873 33.7448 21.891 33.7448 20.8915C33.7448 19.892 33.4819 18.91 32.9826 18.0441C32.4833 17.1782 31.7651 16.4588 30.9 15.9582V15.8248ZM29.2333 22.8082L13.1333 32.1748C12.7725 32.3793 12.3648 32.4868 11.95 32.4868C11.5352 32.4868 11.1275 32.3793 10.7667 32.1748C10.4068 31.9671 10.108 31.6683 9.9003 31.3084C9.69258 30.9485 9.58325 30.5403 9.58333 30.1248V11.5248C9.58325 11.1093 9.69258 10.7011 9.9003 10.3413C10.108 9.98141 10.4068 9.68258 10.7667 9.47483C11.129 9.27343 11.5355 9.16465 11.95 9.15816C12.3642 9.16667 12.7702 9.27532 13.1333 9.47483L29.2333 18.7748C29.5933 18.9825 29.8922 19.2813 30.1001 19.6411C30.3079 20.001 30.4174 20.4093 30.4174 20.8248C30.4174 21.2404 30.3079 21.6487 30.1001 22.0085C29.8922 22.3684 29.5933 22.6672 29.2333 22.8748V22.8082Z" fill="white"/>
</svg>
