<svg width="21" height="21" viewBox="0 0 21 21" fill="none" xmlns="http://www.w3.org/2000/svg">
<path d="M6.33334 5.81076C6.16852 5.81076 6.0074 5.85964 5.87036 5.95121C5.73332 6.04277 5.62651 6.17292 5.56344 6.32519C5.50036 6.47747 5.48386 6.64502 5.51602 6.80667C5.54817 6.96832 5.62754 7.11681 5.74408 7.23335C5.86063 7.3499 6.00911 7.42926 6.17076 7.46142C6.33241 7.49357 6.49997 7.47707 6.65224 7.414C6.80451 7.35092 6.93466 7.24411 7.02623 7.10707C7.1178 6.97003 7.16667 6.80892 7.16667 6.6441C7.16667 6.42308 7.07887 6.21112 6.92259 6.05484C6.76631 5.89856 6.55435 5.81076 6.33334 5.81076ZM18.5917 10.6274L10.6917 2.7441C10.614 2.66032 10.5199 2.59341 10.4152 2.54754C10.3106 2.50166 10.1976 2.4778 10.0833 2.47743H5.08334C4.97366 2.4768 4.86495 2.49782 4.76342 2.53929C4.66188 2.58076 4.56954 2.64186 4.49167 2.7191L2.40834 4.7941C2.3311 4.87196 2.27 4.96431 2.22853 5.06584C2.18706 5.16737 2.16604 5.27609 2.16667 5.38576V10.3858C2.16974 10.6064 2.25606 10.8177 2.40834 10.9774L10.3167 18.8941C10.4764 19.0464 10.6877 19.1327 10.9083 19.1358C11.018 19.1364 11.1267 19.1154 11.2283 19.0739C11.3298 19.0324 11.4221 18.9713 11.5 18.8941L18.5917 11.8024C18.6689 11.7246 18.73 11.6322 18.7715 11.5307C18.813 11.4292 18.834 11.3204 18.8333 11.2108C18.8282 10.993 18.742 10.785 18.5917 10.6274V10.6274ZM10.9083 17.1358L3.83334 10.0524V5.72743L5.41667 4.1441H9.73334L16.8167 11.2191L10.9083 17.1358Z" fill="#E56D39"/>
</svg>
