<svg width="21" height="21" viewBox="0 0 21 21" fill="none" xmlns="http://www.w3.org/2000/svg">
<path d="M11.1 13.3108C11.0834 13.2596 11.058 13.2117 11.025 13.1691L10.925 13.0441C10.8476 12.966 10.7554 12.904 10.6538 12.8617C10.5523 12.8194 10.4434 12.7976 10.3334 12.7976C10.2233 12.7976 10.1144 12.8194 10.0129 12.8617C9.91133 12.904 9.81916 12.966 9.74169 13.0441C9.70197 13.0802 9.66821 13.1224 9.64169 13.1691C9.60871 13.2117 9.58333 13.2596 9.56669 13.3108C9.54256 13.3609 9.52572 13.4142 9.51669 13.4691C9.51261 13.5218 9.51261 13.5748 9.51669 13.6274C9.5138 13.7395 9.5366 13.8506 9.58336 13.9525C9.66816 14.1551 9.82955 14.3161 10.0324 14.4004C10.2353 14.4846 10.4633 14.4854 10.6667 14.4024C10.768 14.3572 10.8609 14.2952 10.9417 14.2191C11.0167 14.1423 11.0761 14.0518 11.1167 13.9525C11.1605 13.8497 11.1831 13.7392 11.1834 13.6274C11.1874 13.5748 11.1874 13.5218 11.1834 13.4691C11.1639 13.4124 11.1358 13.359 11.1 13.3108ZM10.3334 6.94412C10.1123 6.94412 9.90038 7.03191 9.7441 7.18819C9.58782 7.34447 9.50003 7.55644 9.50003 7.77745V10.2774C9.50003 10.4985 9.58782 10.7104 9.7441 10.8667C9.90038 11.023 10.1123 11.1108 10.3334 11.1108C10.5544 11.1108 10.7663 11.023 10.9226 10.8667C11.0789 10.7104 11.1667 10.4985 11.1667 10.2774V7.77745C11.1667 7.55644 11.0789 7.34447 10.9226 7.18819C10.7663 7.03191 10.5544 6.94412 10.3334 6.94412V6.94412ZM16.6917 3.85245C16.5949 3.77413 16.4817 3.71851 16.3606 3.68967C16.2395 3.66083 16.1134 3.6595 15.9917 3.68578C15.1012 3.8724 14.182 3.87478 13.2906 3.69277C12.3991 3.51076 11.5544 3.14821 10.8084 2.62745C10.6689 2.53068 10.5031 2.47882 10.3334 2.47882C10.1636 2.47882 9.99786 2.53068 9.85836 2.62745C9.11232 3.14821 8.26759 3.51076 7.37616 3.69277C6.48474 3.87478 5.5655 3.8724 4.67503 3.68578C4.55331 3.6595 4.42725 3.66083 4.30611 3.68967C4.18497 3.71851 4.07184 3.77413 3.97503 3.85245C3.87834 3.93088 3.80046 4.02998 3.7471 4.14246C3.69374 4.25495 3.66627 4.37795 3.66669 4.50245V10.7108C3.66595 11.9056 3.95067 13.0833 4.49714 14.1457C5.04361 15.2082 5.83601 16.1248 6.80836 16.8191L9.85003 18.9858C9.99116 19.0863 10.1601 19.1403 10.3334 19.1403C10.5066 19.1403 10.6756 19.0863 10.8167 18.9858L13.8584 16.8191C14.8307 16.1248 15.6231 15.2082 16.1696 14.1457C16.716 13.0833 17.0008 11.9056 17 10.7108V4.50245C17.0004 4.37795 16.973 4.25495 16.9196 4.14246C16.8663 4.02998 16.7884 3.93088 16.6917 3.85245V3.85245ZM15.3334 10.7108C15.334 11.6397 15.1128 12.5554 14.6881 13.3816C14.2634 14.2078 13.6475 14.9207 12.8917 15.4608L10.3334 17.2858L7.77503 15.4608C7.01922 14.9207 6.40335 14.2078 5.97865 13.3816C5.55395 12.5554 5.33272 11.6397 5.33336 10.7108V5.46078C7.08038 5.61031 8.83006 5.20497 10.3334 4.30245C11.8367 5.20497 13.5863 5.61031 15.3334 5.46078V10.7108Z" fill="#E56D39"/>
</svg>
