<svg width="21" height="21" viewBox="0 0 21 21" fill="none" xmlns="http://www.w3.org/2000/svg">
<path d="M18.8333 9.97742C18.8298 9.93304 18.8298 9.88846 18.8333 9.84408C18.8333 9.61075 18.7667 9.37742 18.725 9.14408C18.5726 8.45368 18.3288 7.78668 18 7.16075V7.16075C17.4386 6.01219 16.6205 5.00818 15.609 4.22641C14.5975 3.44465 13.4197 2.90609 12.1667 2.65242V2.65242L11.4667 2.54408H11.3333H11.0917H11.025L10.5 2.47742C10.2167 2.47742 9.93334 2.47742 9.66667 2.47742H9.53334L8.83334 2.64408C7.23338 2.97216 5.76509 3.76316 4.61095 4.91878C3.45681 6.07441 2.6677 7.5437 2.34167 9.14408V9.14408C2.3 9.37742 2.26667 9.61075 2.23334 9.84408C2.2369 9.88846 2.2369 9.93304 2.23334 9.97742C2.23334 10.2524 2.23334 10.5358 2.23334 10.8108C2.23334 11.0858 2.23334 11.3774 2.23334 11.6441C2.2369 11.6885 2.2369 11.733 2.23334 11.7774C2.23334 12.0108 2.3 12.2441 2.34167 12.4774C2.47289 13.1646 2.69425 13.8315 3 14.4608V14.4608C3.56137 15.6093 4.37947 16.6133 5.391 17.3951C6.40252 18.1769 7.58035 18.7154 8.83334 18.9691L9.53334 19.0774L9.66667 19.1441H9.95H10.0667C10.2167 19.1441 10.3583 19.1441 10.5083 19.1441C10.7917 19.1441 11.075 19.1441 11.3417 19.1024H11.475L12.1667 18.9774C13.7666 18.6493 15.2349 17.8583 16.3891 16.7027C17.5432 15.5471 18.3323 14.0778 18.6583 12.4774V12.4774C18.7 12.2441 18.7333 12.0108 18.7667 11.7774C18.7849 11.7311 18.8072 11.6864 18.8333 11.6441C18.8333 11.3691 18.875 11.0858 18.875 10.8108C18.875 10.5358 18.8333 10.2441 18.8333 9.97742ZM11.4667 4.22742L11.8833 4.28575C13.3898 4.60731 14.7384 5.44064 15.7 6.64408H10.0167L11.4667 4.22742ZM9.18334 4.29408L9.51667 4.24408L6.65 9.14408L5.25 6.71075C6.21969 5.46769 7.59852 4.6085 9.14167 4.28575L9.18334 4.29408ZM4.325 13.3108C4.17442 12.9414 4.05729 12.5593 3.975 12.1691V12.1691C3.975 11.9858 3.90834 11.7941 3.89167 11.6024C3.88766 11.5692 3.88766 11.5356 3.89167 11.5024C3.84722 11.0535 3.84722 10.6013 3.89167 10.1524C3.88766 10.1192 3.88766 10.0856 3.89167 10.0524C3.89167 9.86075 3.94167 9.66908 3.975 9.48575C4.04831 9.11327 4.15428 8.74797 4.29167 8.39408L7.16667 13.3108H4.325ZM9.575 17.4024L9.15834 17.3441C7.63558 17.0293 6.27075 16.1921 5.3 14.9774H10.9833L9.575 17.4024ZM9.05834 13.3108L7.61667 10.8108L9.05834 8.31075H11.9417L13.3833 10.8108L11.9417 13.3108H9.05834ZM11.8583 17.3358L11.525 17.3858L14.35 12.4774L15.75 14.9108C14.7803 16.1538 13.4015 17.013 11.8583 17.3358V17.3358ZM17.1333 11.5024C17.1374 11.5356 17.1374 11.5692 17.1333 11.6024C17.1333 11.7941 17.0833 11.9858 17.05 12.1691C16.9748 12.5302 16.8689 12.8843 16.7333 13.2274L13.8333 8.31075H16.6417C16.7923 8.68007 16.9094 9.06216 16.9917 9.45242C16.9917 9.63575 17.0583 9.82742 17.075 10.0191C17.079 10.0523 17.079 10.0859 17.075 10.1191C17.1195 10.568 17.1195 11.0202 17.075 11.4691L17.1333 11.5024Z" fill="#E56D39"/>
</svg>
