<svg width="21" height="21" viewBox="0 0 21 21" fill="none" xmlns="http://www.w3.org/2000/svg">
<path d="M16.6917 3.85251C16.5949 3.7742 16.4817 3.71857 16.3606 3.68973C16.2395 3.66089 16.1134 3.65956 15.9917 3.68584C15.1012 3.87246 14.182 3.87484 13.2906 3.69283C12.3991 3.51082 11.5544 3.14827 10.8084 2.62751C10.6689 2.53074 10.5031 2.47888 10.3334 2.47888C10.1636 2.47888 9.99786 2.53074 9.85836 2.62751C9.11232 3.14827 8.26759 3.51082 7.37616 3.69283C6.48474 3.87484 5.5655 3.87246 4.67503 3.68584C4.55331 3.65956 4.42725 3.66089 4.30611 3.68973C4.18497 3.71857 4.07184 3.7742 3.97503 3.85251C3.87834 3.93094 3.80046 4.03004 3.7471 4.14252C3.69374 4.25501 3.66627 4.37802 3.66669 4.50251V10.7108C3.66595 11.9056 3.95067 13.0833 4.49714 14.1458C5.04361 15.2083 5.83601 16.1249 6.80836 16.8192L9.85003 18.9858C9.99116 19.0863 10.1601 19.1403 10.3334 19.1403C10.5066 19.1403 10.6756 19.0863 10.8167 18.9858L13.8584 16.8192C14.8307 16.1249 15.6231 15.2083 16.1696 14.1458C16.716 13.0833 17.0008 11.9056 17 10.7108V4.50251C17.0004 4.37802 16.973 4.25501 16.9196 4.14252C16.8663 4.03004 16.7884 3.93094 16.6917 3.85251ZM15.3334 10.7108C15.334 11.6398 15.1128 12.5555 14.6881 13.3817C14.2634 14.2079 13.6475 14.9207 12.8917 15.4608L10.3334 17.2858L7.77503 15.4608C7.01922 14.9207 6.40335 14.2079 5.97865 13.3817C5.55395 12.5555 5.33272 11.6398 5.33336 10.7108V5.46084C7.08038 5.61037 8.83006 5.20503 10.3334 4.30251C11.8367 5.20503 13.5863 5.61037 15.3334 5.46084V10.7108ZM11.6167 8.80251L9.37503 11.0525L8.63336 10.3025C8.47644 10.1456 8.26361 10.0574 8.04169 10.0574C7.81977 10.0574 7.60695 10.1456 7.45003 10.3025C7.29311 10.4594 7.20495 10.6723 7.20495 10.8942C7.20495 11.1161 7.29311 11.3289 7.45003 11.4858L8.78336 12.8192C8.86083 12.8973 8.953 12.9593 9.05455 13.0016C9.15609 13.0439 9.26502 13.0657 9.37503 13.0657C9.48504 13.0657 9.59396 13.0439 9.69551 13.0016C9.79705 12.9593 9.88922 12.8973 9.96669 12.8192L12.8334 9.97751C12.9903 9.82059 13.0784 9.60776 13.0784 9.38584C13.0784 9.16393 12.9903 8.9511 12.8334 8.79418C12.6764 8.63726 12.4636 8.5491 12.2417 8.5491C12.0198 8.5491 11.8069 8.63726 11.65 8.79418L11.6167 8.80251Z" fill="#E56D39"/>
</svg>
