<svg width="21" height="21" viewBox="0 0 21 21" fill="none" xmlns="http://www.w3.org/2000/svg">
<path d="M11.75 10.9941C12.1946 10.6092 12.5513 10.1332 12.7957 9.59827C13.0401 9.06338 13.1667 8.48217 13.1666 7.89408C13.1666 6.78902 12.7277 5.72921 11.9463 4.94781C11.1649 4.1664 10.105 3.72742 8.99998 3.72742C7.89491 3.72742 6.8351 4.1664 6.0537 4.94781C5.2723 5.72921 4.83331 6.78902 4.83331 7.89408C4.83331 8.48217 4.95981 9.06338 5.20425 9.59827C5.44869 10.1332 5.80533 10.6092 6.24998 10.9941C5.08343 11.5223 4.0937 12.3754 3.39913 13.4512C2.70456 14.5271 2.33454 15.7802 2.33331 17.0608C2.33331 17.2818 2.42111 17.4937 2.57739 17.65C2.73367 17.8063 2.94563 17.8941 3.16665 17.8941C3.38766 17.8941 3.59962 17.8063 3.7559 17.65C3.91218 17.4937 3.99998 17.2818 3.99998 17.0608C3.99998 15.7347 4.52676 14.4629 5.46445 13.5252C6.40213 12.5875 7.6739 12.0608 8.99998 12.0608C10.3261 12.0608 11.5978 12.5875 12.5355 13.5252C13.4732 14.4629 14 15.7347 14 17.0608C14 17.2818 14.0878 17.4937 14.2441 17.65C14.4003 17.8063 14.6123 17.8941 14.8333 17.8941C15.0543 17.8941 15.2663 17.8063 15.4226 17.65C15.5789 17.4937 15.6666 17.2818 15.6666 17.0608C15.6654 15.7802 15.2954 14.5271 14.6008 13.4512C13.9063 12.3754 12.9165 11.5223 11.75 10.9941V10.9941ZM8.99998 10.3941C8.50553 10.3941 8.02218 10.2475 7.61105 9.97276C7.19993 9.69805 6.8795 9.30761 6.69028 8.85079C6.50106 8.39398 6.45155 7.89131 6.54802 7.40636C6.64448 6.92141 6.88258 6.47595 7.23221 6.12632C7.58184 5.77669 8.0273 5.53858 8.51225 5.44212C8.99721 5.34566 9.49987 5.39517 9.95669 5.58439C10.4135 5.7736 10.804 6.09404 11.0787 6.50516C11.3534 6.91628 11.5 7.39963 11.5 7.89408C11.5 8.55713 11.2366 9.19301 10.7677 9.66185C10.2989 10.1307 9.66302 10.3941 8.99998 10.3941ZM18.7583 8.41908C18.6808 8.34098 18.5887 8.27898 18.4871 8.23667C18.3856 8.19437 18.2767 8.17259 18.1666 8.17259C18.0566 8.17259 17.9477 8.19437 17.8462 8.23667C17.7446 8.27898 17.6525 8.34098 17.575 8.41908L15.9083 10.0858L15.3916 9.56075C15.3142 9.48264 15.222 9.42065 15.1205 9.37834C15.0189 9.33603 14.91 9.31425 14.8 9.31425C14.69 9.31425 14.581 9.33603 14.4795 9.37834C14.378 9.42065 14.2858 9.48264 14.2083 9.56075C14.0531 9.71689 13.966 9.9281 13.966 10.1483C13.966 10.3684 14.0531 10.5796 14.2083 10.7358L15.325 11.8524C15.4811 12.0076 15.6923 12.0947 15.9125 12.0947C16.1326 12.0947 16.3438 12.0076 16.5 11.8524L18.725 9.62742C18.8091 9.55185 18.877 9.45995 18.9245 9.35732C18.972 9.25468 18.998 9.14345 19.0012 9.03041C19.0043 8.91737 18.9844 8.80487 18.9426 8.69977C18.9009 8.59467 18.8382 8.49917 18.7583 8.41908V8.41908Z" fill="#E56D39"/>
</svg>
