<svg width="72" height="31" viewBox="0 0 72 31" fill="none" xmlns="http://www.w3.org/2000/svg">
<path d="M30.7509 15.6398C30.7509 13.7945 30.4012 12.0345 29.7917 10.4019C29.6305 15.7754 24.1688 19.9357 20.9623 22.6888H28.9885C30.1104 20.5867 30.7509 18.1885 30.7509 15.6398ZM24.9486 3.80793C22.4073 1.82942 19.2211 0.639648 15.7508 0.639648C7.46613 0.639648 0.75 7.35577 0.75 15.6398C0.75 23.9237 7.46613 30.6396 15.7508 30.6396C19.5444 30.6396 22.9987 29.2203 25.6403 26.8975H14.7803L14.7472 23.7083C21.2907 18.0198 25.302 14.1727 25.302 10.4568C25.302 9.07586 24.776 7.33316 22.4088 7.33316C20.5343 7.33316 18.726 8.41897 19.0547 12.9561H15.2407C14.287 7.69555 17.1477 3.51922 22.6055 3.51922C23.4517 3.51922 24.2344 3.62023 24.9486 3.80793Z" fill="#A3C626"/>
<path fill-rule="evenodd" clip-rule="evenodd" d="M48.212 11.0072H44.6639C44.6639 8.09602 43.3298 7.12555 41.4189 7.12555C39.5694 7.12555 37.9012 8.36878 37.9012 11.9777V18.0429C37.9012 23.1984 41.9953 22.8949 44.2397 22.137V18.0429H41.2675V14.6766H47.9392V23.9564C46.5748 25.4422 43.6332 25.8973 41.6013 25.8973C38.2049 25.8973 34.171 24.624 34.171 18.8008C34.171 17.3024 34.1586 15.2171 34.1497 13.7228C34.1447 12.8885 34.1409 12.2385 34.1409 11.9777C34.1409 6.61025 37.2646 4.03201 41.5712 4.03201C47.4239 4.03201 48.3333 8.30854 48.212 11.0072ZM65.4264 13.1622C68.0613 14.1286 71.1425 15.2588 71.0559 20.0137C70.9948 23.5013 68.5689 25.8673 64.2931 25.8673C59.2286 25.8673 57.3178 22.7736 57.7118 18.4369H61.2303C60.9268 21.712 62.4434 22.8037 64.3233 22.8037C65.9302 22.8037 67.3558 21.9245 67.4168 19.9534C67.4832 17.8413 65.6819 17.1547 63.6491 16.3798C61.041 15.3855 58.0517 14.2459 58.1368 9.76404C58.1979 5.85229 61.1392 4.09308 64.7179 4.09308C70.4795 4.09308 71.086 8.49009 70.9948 11.0683H67.5072C67.5373 8.21733 66.4464 7.12555 64.5966 7.12555C62.8676 7.12555 61.8059 8.18724 61.7758 9.82447C61.7371 11.809 63.4571 12.4398 65.4264 13.1622Z" fill="#434242"/>
<path d="M55.0349 25.5936H51.457V4.36583H55.0349V25.5936Z" fill="#434242"/>
</svg>
