<svg width="128" height="50" viewBox="0 0 128 50" fill="none" xmlns="http://www.w3.org/2000/svg">
<path fill-rule="evenodd" clip-rule="evenodd" d="M109.332 0H118.593V4.63053H109.332V0ZM9.66814 35.6783C11.647 36.4133 13.7813 36.7808 16.0712 36.7808C18.672 36.7808 21.0042 36.3285 23.0678 35.4239C25.1598 34.5193 26.9125 33.2047 28.326 31.4803L23.9159 27.4095C22.8982 28.5968 21.7675 29.4873 20.5236 30.081C19.2797 30.6464 17.9228 30.929 16.4528 30.929C15.0676 30.929 13.7955 30.7029 12.6364 30.2506C11.4774 29.7983 10.4738 29.1481 9.62574 28.3C8.77765 27.4519 8.11332 26.4483 7.63274 25.2893C7.18043 24.1302 6.95428 22.844 6.95428 21.4305C6.95428 20.017 7.18043 18.7308 7.63274 17.5717C8.11332 16.4127 8.77765 15.4091 9.62574 14.561C10.4738 13.713 11.4774 13.0628 12.6364 12.6105C13.7955 12.1581 15.0676 11.932 16.4528 11.932C17.9228 11.932 19.2797 12.2288 20.5236 12.8225C21.7675 13.3879 22.8982 14.2501 23.9159 15.4091L28.326 11.3383C26.9125 9.61389 25.1598 8.3135 23.0678 7.43715C21.0042 6.53253 18.6861 6.08021 16.1136 6.08021C13.7955 6.08021 11.6611 6.46186 9.71054 7.22513C7.75995 7.96013 6.04965 9.02024 4.57964 10.4054C3.1379 11.7906 2.00713 13.4161 1.18731 15.2819C0.39577 17.1477 0 19.1972 0 21.4305C0 23.6638 0.39577 25.7133 1.18731 27.5791C2.00713 29.4449 3.1379 31.0704 4.57964 32.4556C6.02139 33.8408 7.71755 34.915 9.66814 35.6783ZM46.627 6.58907H32.8032V36.272H47.4327C51.1925 36.272 54.0477 35.537 55.9983 34.067C57.9772 32.5687 58.9666 30.5191 58.9666 27.9184C58.9666 25.4024 58.0478 23.4801 56.2103 22.1514C55.4182 21.5786 54.4869 21.1293 53.4163 20.8035C53.931 20.5577 54.41 20.272 54.8534 19.9464C56.6626 18.5894 57.5672 16.6954 57.5672 14.2642C57.5672 11.8048 56.6061 9.91072 54.6838 8.58206C52.7614 7.2534 50.0759 6.58907 46.627 6.58907ZM47.1782 31.1835H39.6303V23.6779H47.1782C48.7613 23.6779 49.9628 23.9889 50.7826 24.6108C51.6024 25.2045 52.0123 26.1232 52.0123 27.3671C52.0123 28.6675 51.6024 29.6286 50.7826 30.2506C49.9628 30.8725 48.7613 31.1835 47.1782 31.1835ZM46.0333 18.8863H39.6303V11.6776H46.0333C47.5316 11.6776 48.6624 11.9885 49.4257 12.6105C50.1889 13.2041 50.5706 14.0946 50.5706 15.2819C50.5706 16.4692 50.1889 17.3739 49.4257 17.9958C48.6624 18.5894 47.5316 18.8863 46.0333 18.8863ZM100.178 6.58907H107.005V25.9254L121.168 6.58907H127.613V36.272H120.829V16.9781L106.666 36.272H100.178V6.58907ZM72.7674 35.5143C74.7703 36.2754 76.9425 36.6559 79.284 36.6559C81.5972 36.6559 83.7271 36.2754 85.6736 35.5143C87.6483 34.7532 89.3551 33.6961 90.7938 32.3431C92.2607 30.9618 93.4033 29.341 94.2214 27.4805C95.0395 25.5919 95.4485 23.5482 95.4485 21.3495C95.4485 19.1226 95.0395 17.093 94.2214 15.2607C93.4033 13.4002 92.2607 11.7794 90.7938 10.3981C89.3551 9.01689 87.6483 7.94572 85.6736 7.18463C83.7271 6.42353 81.5831 6.04299 79.2417 6.04299C76.9284 6.04299 74.7844 6.42353 72.8097 7.18463C70.835 7.94572 69.1141 9.01689 67.6472 10.3981C66.1803 11.7794 65.0377 13.4002 64.2196 15.2607C63.4297 17.1212 63.0348 19.1507 63.0348 21.3495C63.0348 23.5482 63.4297 25.5778 64.2196 27.4382C65.0377 29.2987 66.1662 30.9195 67.6049 32.3008C69.0718 33.682 70.7927 34.7532 72.7674 35.5143ZM79.1793 13.1747C82.1015 13.1747 84.8048 14.7322 86.2664 17.2608C87.7288 19.7907 87.7288 22.9081 86.2664 25.438C84.8048 27.9666 82.1015 29.5241 79.1793 29.5241C76.257 29.5241 73.5537 27.9666 72.0921 25.438C70.6298 22.9081 70.6298 19.7907 72.0921 17.2608C73.5537 14.7322 76.257 13.1747 79.1793 13.1747Z" fill="url(#paint0_linear_724_50595)"/>
<rect y="44.625" width="27.6616" height="1.02901" fill="#7F5333"/>
<path d="M33.0544 47.6396L35.4855 42.2374H36.4733L38.9121 47.6396H37.8625L35.771 42.7699H36.1723L34.0886 47.6396H33.0544ZM34.1735 46.3894L34.4436 45.6022H37.3608L37.6309 46.3894H34.1735ZM40.2884 47.6396V42.2374H42.704C43.3111 42.2374 43.7845 42.3583 44.1241 42.6001C44.4636 42.8368 44.6334 43.1789 44.6334 43.6265C44.6334 44.069 44.4713 44.4111 44.1472 44.653C43.8231 44.8896 43.396 45.008 42.8661 45.008L43.005 44.7301C43.607 44.7301 44.0726 44.851 44.4019 45.0929C44.7312 45.3347 44.8958 45.6845 44.8958 46.1424C44.8958 46.6106 44.7234 46.9785 44.3787 47.2461C44.034 47.5085 43.5247 47.6396 42.8507 47.6396H40.2884ZM41.2763 46.8679H42.8198C43.1696 46.8679 43.4346 46.8036 43.6147 46.675C43.7948 46.5412 43.8848 46.338 43.8848 46.0653C43.8848 45.7926 43.7948 45.5945 43.6147 45.471C43.4346 45.3424 43.1696 45.2781 42.8198 45.2781H41.2763V46.8679ZM41.2763 44.5449H42.6191C42.9433 44.5449 43.1902 44.4806 43.36 44.352C43.5298 44.2182 43.6147 44.0278 43.6147 43.7809C43.6147 43.5236 43.5298 43.3307 43.36 43.2021C43.1902 43.0734 42.9433 43.0091 42.6191 43.0091H41.2763V44.5449ZM47.6381 47.6396V42.8393L47.8773 43.0863H45.8553V42.2374H50.4241V43.0863H48.4021L48.6336 42.8393V47.6396H47.6381ZM54.2624 47.7168C53.8406 47.7168 53.4521 47.6474 53.0971 47.5085C52.7421 47.3695 52.4334 47.1766 52.171 46.9296C51.9086 46.6775 51.7054 46.3843 51.5613 46.0498C51.4172 45.7103 51.3452 45.3398 51.3452 44.9385C51.3452 44.5372 51.4172 44.1693 51.5613 43.8349C51.7054 43.4953 51.9086 43.2021 52.171 42.9551C52.4334 42.703 52.7421 42.5075 53.0971 42.3686C53.4521 42.2296 53.838 42.1602 54.2547 42.1602C54.6766 42.1602 55.0625 42.2296 55.4124 42.3686C55.7674 42.5075 56.0761 42.703 56.3385 42.9551C56.6009 43.2021 56.8041 43.4953 56.9482 43.8349C57.0922 44.1693 57.1642 44.5372 57.1642 44.9385C57.1642 45.3398 57.0922 45.7103 56.9482 46.0498C56.8041 46.3894 56.6009 46.6827 56.3385 46.9296C56.0761 47.1766 55.7674 47.3695 55.4124 47.5085C55.0625 47.6474 54.6792 47.7168 54.2624 47.7168ZM54.2547 46.837C54.5274 46.837 54.7795 46.7907 55.011 46.6981C55.2426 46.6055 55.4432 46.4743 55.613 46.3045C55.7828 46.1296 55.914 45.9289 56.0066 45.7025C56.1044 45.471 56.1532 45.2163 56.1532 44.9385C56.1532 44.6607 56.1044 44.4086 56.0066 44.1822C55.914 43.9507 55.7828 43.75 55.613 43.5802C55.4432 43.4053 55.2426 43.2715 55.011 43.1789C54.7795 43.0863 54.5274 43.04 54.2547 43.04C53.982 43.04 53.7299 43.0863 53.4984 43.1789C53.272 43.2715 53.0714 43.4053 52.8964 43.5802C52.7267 43.75 52.5929 43.9507 52.4951 44.1822C52.4025 44.4086 52.3562 44.6607 52.3562 44.9385C52.3562 45.2112 52.4025 45.4633 52.4951 45.6948C52.5929 45.9264 52.7267 46.1296 52.8964 46.3045C53.0662 46.4743 53.2669 46.6055 53.4984 46.6981C53.7299 46.7907 53.982 46.837 54.2547 46.837ZM61.2987 47.7168C60.8871 47.7168 60.5038 47.6499 60.1488 47.5162C59.799 47.3773 59.4928 47.1843 59.2304 46.9374C58.9732 46.6852 58.7725 46.3894 58.6285 46.0498C58.4844 45.7103 58.4124 45.3398 58.4124 44.9385C58.4124 44.5372 58.4844 44.1668 58.6285 43.8272C58.7725 43.4876 58.9758 43.1943 59.2382 42.9474C59.5005 42.6953 59.8067 42.5023 60.1565 42.3686C60.5064 42.2296 60.8897 42.1602 61.3065 42.1602C61.7489 42.1602 62.1528 42.2374 62.5181 42.3917C62.8834 42.5409 63.1921 42.7647 63.4442 43.0631L62.7959 43.6728C62.6004 43.4619 62.3818 43.305 62.14 43.2021C61.8981 43.094 61.6357 43.04 61.3528 43.04C61.0698 43.04 60.81 43.0863 60.5733 43.1789C60.3418 43.2715 60.1385 43.4027 59.9636 43.5725C59.7938 43.7423 59.66 43.9429 59.5623 44.1745C59.4697 44.406 59.4234 44.6607 59.4234 44.9385C59.4234 45.2163 59.4697 45.471 59.5623 45.7025C59.66 45.9341 59.7938 46.1347 59.9636 46.3045C60.1385 46.4743 60.3418 46.6055 60.5733 46.6981C60.81 46.7907 61.0698 46.837 61.3528 46.837C61.6357 46.837 61.8981 46.7856 62.14 46.6827C62.3818 46.5746 62.6004 46.4126 62.7959 46.1965L63.4442 46.8139C63.1921 47.1071 62.8834 47.3309 62.5181 47.4853C62.1528 47.6396 61.7464 47.7168 61.2987 47.7168ZM65.8421 44.4832H68.5278V45.3089H65.8421V44.4832ZM65.9193 46.7984H68.9677V47.6396H64.916V42.2374H68.8596V43.0786H65.9193V46.7984ZM70.6264 47.6396V42.2374H72.849C73.3275 42.2374 73.7365 42.3145 74.0761 42.4689C74.4208 42.6232 74.6858 42.8445 74.871 43.1326C75.0562 43.4207 75.1488 43.7629 75.1488 44.159C75.1488 44.5552 75.0562 44.8973 74.871 45.1855C74.6858 45.4736 74.4208 45.6948 74.0761 45.8492C73.7365 46.0035 73.3275 46.0807 72.849 46.0807H71.182L71.6296 45.6099V47.6396H70.6264ZM71.6296 45.718L71.182 45.2318H72.8027C73.2452 45.2318 73.577 45.1392 73.7983 44.9539C74.0247 44.7636 74.1379 44.4986 74.1379 44.159C74.1379 43.8143 74.0247 43.5493 73.7983 43.3641C73.577 43.1789 73.2452 43.0863 72.8027 43.0863H71.182L71.6296 42.5924V45.718ZM76.6459 47.6396V42.2374H79.0615C79.6686 42.2374 80.142 42.3583 80.4816 42.6001C80.8211 42.8368 80.9909 43.1789 80.9909 43.6265C80.9909 44.069 80.8288 44.4111 80.5047 44.653C80.1806 44.8896 79.7535 45.008 79.2236 45.008L79.3625 44.7301C79.9645 44.7301 80.4301 44.851 80.7594 45.0929C81.0887 45.3347 81.2533 45.6845 81.2533 46.1424C81.2533 46.6106 81.081 46.9785 80.7362 47.2461C80.3915 47.5085 79.8822 47.6396 79.2082 47.6396H76.6459ZM77.6338 46.8679H79.1773C79.5271 46.8679 79.7921 46.8036 79.9722 46.675C80.1523 46.5412 80.2423 46.338 80.2423 46.0653C80.2423 45.7926 80.1523 45.5945 79.9722 45.471C79.7921 45.3424 79.5271 45.2781 79.1773 45.2781H77.6338V46.8679ZM77.6338 44.5449H78.9766C79.3008 44.5449 79.5477 44.4806 79.7175 44.352C79.8873 44.2182 79.9722 44.0278 79.9722 43.7809C79.9722 43.5236 79.8873 43.3307 79.7175 43.2021C79.5477 43.0734 79.3008 43.0091 78.9766 43.0091H77.6338V44.5449ZM82.9442 47.6396V42.2374H83.932V46.073L86.8338 42.2374H87.7676V47.6396H86.7798V43.8117L83.878 47.6396H82.9442ZM92.3076 47.7168C91.896 47.7168 91.5127 47.6499 91.1577 47.5162C90.8078 47.3773 90.5017 47.1843 90.2393 46.9374C89.9821 46.6852 89.7814 46.3894 89.6373 46.0498C89.4933 45.7103 89.4213 45.3398 89.4213 44.9385C89.4213 44.5372 89.4933 44.1668 89.6373 43.8272C89.7814 43.4876 89.9846 43.1943 90.247 42.9474C90.5094 42.6953 90.8156 42.5023 91.1654 42.3686C91.5153 42.2296 91.8986 42.1602 92.3153 42.1602C92.7578 42.1602 93.1617 42.2374 93.527 42.3917C93.8923 42.5409 94.201 42.7647 94.4531 43.0631L93.8048 43.6728C93.6093 43.4619 93.3906 43.305 93.1488 43.2021C92.907 43.094 92.6446 43.04 92.3616 43.04C92.0787 43.04 91.8188 43.0863 91.5822 43.1789C91.3506 43.2715 91.1474 43.4027 90.9725 43.5725C90.8027 43.7423 90.6689 43.9429 90.5712 44.1745C90.4786 44.406 90.4323 44.6607 90.4323 44.9385C90.4323 45.2163 90.4786 45.471 90.5712 45.7025C90.6689 45.9341 90.8027 46.1347 90.9725 46.3045C91.1474 46.4743 91.3506 46.6055 91.5822 46.6981C91.8188 46.7907 92.0787 46.837 92.3616 46.837C92.6446 46.837 92.907 46.7856 93.1488 46.6827C93.3906 46.5746 93.6093 46.4126 93.8048 46.1965L94.4531 46.8139C94.201 47.1071 93.8923 47.3309 93.527 47.4853C93.1617 47.6396 92.7552 47.7168 92.3076 47.7168Z" fill="#7F5333"/>
<rect x="99.9517" y="44.625" width="27.6616" height="1.02901" fill="#7F5333"/>
<defs>
<linearGradient id="paint0_linear_724_50595" x1="0.00819675" y1="-107.682" x2="127.605" y2="-107.682" gradientUnits="userSpaceOnUse">
<stop stop-color="#A64929"/>
<stop offset="0.620339" stop-color="#FF7940"/>
<stop offset="1" stop-color="#A64929"/>
</linearGradient>
</defs>
</svg>
