<!-- Generated by IcoMoon.io -->
<svg version="1.1" xmlns="http://www.w3.org/2000/svg" width="32" height="32" viewBox="0 0 32 32">
<title>u_map-marker</title>
<path fill="#E56D39" d="M16 2.668c-2.829 0-5.542 1.124-7.542 3.124s-3.124 4.713-3.124 7.542c0 7.2 9.4 15.333 9.8 15.68 0.242 0.207 0.549 0.32 0.867 0.32s0.625-0.113 0.867-0.32c0.467-0.347 9.8-8.48 9.8-15.68 0-2.829-1.124-5.542-3.124-7.542s-4.713-3.124-7.542-3.124v0zM16 26.202c-2.84-2.667-8-8.413-8-12.867 0-2.122 0.843-4.157 2.343-5.657s3.535-2.343 5.657-2.343c2.122 0 4.157 0.843 5.657 2.343s2.343 3.535 2.343 5.657c0 4.453-5.16 10.213-8 12.867zM16 8.002c-1.055 0-2.086 0.313-2.963 0.899s-1.561 1.419-1.964 2.394c-0.404 0.975-0.509 2.047-0.303 3.081s0.714 1.985 1.46 2.731c0.746 0.746 1.696 1.254 2.731 1.46s2.107 0.1 3.082-0.303c0.974-0.404 1.807-1.087 2.393-1.964s0.899-1.908 0.899-2.963c0-1.415-0.562-2.771-1.562-3.771s-2.357-1.562-3.771-1.562zM16 16.002c-0.527 0-1.043-0.156-1.482-0.449s-0.78-0.71-0.982-1.197c-0.202-0.487-0.255-1.023-0.152-1.541s0.357-0.992 0.73-1.365c0.373-0.373 0.848-0.627 1.365-0.73s1.053-0.050 1.541 0.152c0.487 0.202 0.904 0.544 1.197 0.982s0.449 0.954 0.449 1.482c0 0.707-0.281 1.386-0.781 1.886s-1.178 0.781-1.886 0.781z"></path>
</svg>

