<svg width="21" height="21" viewBox="0 0 21 21" fill="none" xmlns="http://www.w3.org/2000/svg">
<path d="M18.803 8.06029C18.7503 7.90786 18.6546 7.77398 18.5274 7.67487C18.4002 7.57577 18.247 7.5157 18.0863 7.50195L13.3446 6.81029L11.2196 2.50195C11.1514 2.36106 11.0448 2.24224 10.9122 2.1591C10.7796 2.07596 10.6262 2.03186 10.4696 2.03186C10.3131 2.03186 10.1597 2.07596 10.0271 2.1591C9.89441 2.24224 9.78786 2.36106 9.71963 2.50195L7.59463 6.80195L2.85296 7.50195C2.69873 7.52387 2.55373 7.58859 2.43442 7.68875C2.31511 7.78891 2.22626 7.92051 2.17796 8.06862C2.13375 8.21335 2.12978 8.36738 2.16648 8.5142C2.20319 8.66101 2.27917 8.79506 2.38629 8.90195L5.82796 12.2353L4.99463 16.9686C4.96488 17.1249 4.98045 17.2863 5.03952 17.434C5.09858 17.5817 5.19867 17.7093 5.32796 17.802C5.45397 17.892 5.6026 17.9452 5.75717 17.9555C5.91173 17.9658 6.0661 17.9328 6.20296 17.8603L10.4696 15.6353L14.7196 17.8686C14.8366 17.9346 14.9687 17.9691 15.103 17.9686C15.2795 17.9692 15.4516 17.9138 15.5946 17.8103C15.7239 17.7177 15.824 17.59 15.8831 17.4423C15.9421 17.2947 15.9577 17.1332 15.928 16.977L15.0946 12.2436L18.5363 8.91029C18.6566 8.80835 18.7455 8.67437 18.7927 8.52391C18.8399 8.37345 18.8435 8.21268 18.803 8.06029ZM13.678 11.3936C13.5802 11.4881 13.5071 11.6052 13.465 11.7344C13.4229 11.8637 13.413 12.0013 13.4363 12.1353L14.0363 15.627L10.903 13.9603C10.7824 13.8961 10.6479 13.8625 10.5113 13.8625C10.3747 13.8625 10.2402 13.8961 10.1196 13.9603L6.98629 15.627L7.58629 12.1353C7.60957 12.0013 7.59972 11.8637 7.5576 11.7344C7.51547 11.6052 7.44236 11.4881 7.34463 11.3936L4.84463 8.89362L8.35296 8.38529C8.48796 8.36651 8.61629 8.3149 8.72671 8.235C8.83713 8.15509 8.92626 8.04932 8.98629 7.92695L10.4696 4.75195L12.0363 7.93529C12.0963 8.05765 12.1855 8.16342 12.2959 8.24333C12.4063 8.32324 12.5346 8.37484 12.6696 8.39362L16.178 8.90195L13.678 11.3936Z" fill="#E56D39"/>
</svg>
