<svg width="21" height="21" viewBox="0 0 21 21" fill="none" xmlns="http://www.w3.org/2000/svg">
<path d="M10.3518 20.8198C15.8747 20.8198 20.3518 16.3427 20.3518 10.8198C20.3518 5.29698 15.8747 0.819824 10.3518 0.819824C4.82896 0.819824 0.351807 5.29698 0.351807 10.8198C0.351807 16.3427 4.82896 20.8198 10.3518 20.8198Z" fill="url(#paint0_linear_724_50625)"/>
<path fill-rule="evenodd" clip-rule="evenodd" d="M4.87838 10.7143C7.79358 9.44416 9.7375 8.60682 10.7102 8.20227C13.4873 7.04717 14.0643 6.84652 14.4404 6.83989C14.5232 6.83844 14.7081 6.85894 14.8279 6.95616C14.9291 7.03825 14.9569 7.14914 14.9703 7.22697C14.9836 7.3048 15.0002 7.4821 14.987 7.62064C14.8365 9.20187 14.1853 13.0391 13.854 14.8101C13.7138 15.5595 13.4378 15.8108 13.1706 15.8354C12.5899 15.8888 12.1489 15.4516 11.5865 15.0829C10.7063 14.506 10.2091 14.1468 9.35481 13.5838C8.3675 12.9332 9.00753 12.5756 9.5702 11.9912C9.71745 11.8383 12.2761 9.51095 12.3256 9.29983C12.3318 9.27343 12.3376 9.175 12.2791 9.12303C12.2206 9.07106 12.1343 9.08883 12.0721 9.10297C11.9838 9.123 10.5778 10.0523 7.854 11.8909C7.4549 12.165 7.09342 12.2985 6.76954 12.2915C6.41249 12.2838 5.72566 12.0896 5.21508 11.9237C4.58883 11.7201 4.0911 11.6125 4.13444 11.2667C4.15701 11.0867 4.40499 10.9025 4.87838 10.7143Z" fill="white"/>
<defs>
<linearGradient id="paint0_linear_724_50625" x1="10.3518" y1="0.819824" x2="10.3518" y2="20.6715" gradientUnits="userSpaceOnUse">
<stop stop-color="#2AABEE"/>
<stop offset="1" stop-color="#229ED9"/>
</linearGradient>
</defs>
</svg>
