<svg width="21" height="21" viewBox="0 0 21 21" fill="none" xmlns="http://www.w3.org/2000/svg">
<path d="M10.1408 20.8198H10.9742C15.5075 20.8198 17.7658 20.8198 19.1658 19.4198C20.5575 18.0198 20.5575 15.7532 20.5575 11.2365V10.3865C20.5575 5.88649 20.5575 3.61982 19.1658 2.21982C17.7658 0.819824 15.4992 0.819824 10.9742 0.819824H10.1408C5.60749 0.819824 3.34916 0.819824 1.94916 2.21982C0.557495 3.61982 0.557495 5.88649 0.557495 10.4032V11.2532C0.557495 15.7532 0.557495 18.0198 1.95749 19.4198C3.35749 20.8198 5.62416 20.8198 10.1408 20.8198Z" fill="#0077FF"/>
<path d="M11.1992 15.2282C6.64083 15.2282 4.04083 12.1032 3.9325 6.90316H6.21583C6.29083 10.7198 7.97417 12.3365 9.3075 12.6698V6.90316H11.4575V10.1948C12.7742 10.0532 14.1575 8.55316 14.6242 6.90316H16.7742C16.5983 7.7589 16.2478 8.56915 15.7445 9.28322C15.2412 9.9973 14.596 10.5998 13.8492 11.0532C14.6828 11.4674 15.4191 12.0537 16.0094 12.7733C16.5998 13.493 17.0309 14.3297 17.2742 15.2282H14.9075C14.6891 14.4478 14.2452 13.7492 13.6315 13.2199C13.0178 12.6907 12.2615 12.3544 11.4575 12.2532V15.2282H11.1992Z" fill="white"/>
</svg>
