<svg width="21" height="21" viewBox="0 0 21 21" fill="none" xmlns="http://www.w3.org/2000/svg">
<path d="M0.557495 20.8198L1.95882 15.6818C1.09473 14.1749 0.640239 12.4679 0.640558 10.7308C0.640558 5.26904 5.06265 0.819824 10.4911 0.819824C13.1276 0.819824 15.598 1.85387 17.4661 3.72306C18.3841 4.64411 19.1115 5.73715 19.6067 6.93962C20.1019 8.14209 20.3551 9.4304 20.3518 10.7308C20.3518 16.1932 15.9303 20.6424 10.5013 20.6424C8.85132 20.6424 7.23188 20.2243 5.78874 19.4309L0.557495 20.8198Z" fill="url(#paint0_linear_724_50624)"/>
<path fill-rule="evenodd" clip-rule="evenodd" d="M7.9478 6.42796C7.76134 5.99965 7.5534 5.98948 7.3771 5.98948C7.22115 5.97875 7.05502 5.97875 6.87873 5.97875C6.7126 5.97875 6.43234 6.04147 6.19388 6.30252C5.95487 6.56357 5.3011 7.18005 5.3011 8.44407C5.3011 9.70752 6.21479 10.9297 6.3391 11.0964C6.46341 11.2637 8.10376 13.9375 10.6985 14.9715C12.8575 15.8276 13.2938 15.6609 13.7611 15.6084C14.2278 15.5564 15.2658 14.9924 15.4839 14.3861C15.6913 13.7911 15.6913 13.269 15.6291 13.1645C15.567 13.06 15.3901 12.9972 15.1409 12.8616C14.8816 12.7362 13.6362 12.1101 13.3972 12.0259C13.1587 11.9423 12.9926 11.9005 12.8265 12.1514C12.6603 12.4124 12.1727 12.9871 12.0167 13.1538C11.8715 13.321 11.7161 13.3419 11.4669 13.2165C11.207 13.0916 10.3877 12.8198 9.41129 11.9423C8.65412 11.2637 8.14557 10.4178 7.98962 10.1669C7.8444 9.90585 7.96871 9.77024 8.10376 9.6448C8.2179 9.53009 8.36368 9.34193 8.48799 9.19558C8.61231 9.04924 8.65355 8.93453 8.74735 8.76727C8.83042 8.60058 8.7886 8.4435 8.72645 8.31862C8.66429 8.20335 8.17609 6.9399 7.9478 6.42796Z" fill="white"/>
<defs>
<linearGradient id="paint0_linear_724_50624" x1="10.4527" y1="20.8187" x2="10.4527" y2="0.815868" gradientUnits="userSpaceOnUse">
<stop stop-color="#20B038"/>
<stop offset="1" stop-color="#60D66A"/>
</linearGradient>
</defs>
</svg>
